<svg xmlns="http://www.w3.org/2000/svg" xmlns:xlink="http://www.w3.org/1999/xlink" width="500" zoomAndPan="magnify" viewBox="0 0 375 374.999991" height="500" preserveAspectRatio="xMidYMid meet" version="1.0"><defs><clipPath id="1868a645d9"><path d="M 27.5625 26.382812 L 83.8125 26.382812 L 83.8125 82.632812 L 27.5625 82.632812 Z M 27.5625 26.382812 " clip-rule="nonzero"/></clipPath><clipPath id="d945c4a9fc"><path d="M 27.5625 92.929688 L 83.8125 92.929688 L 83.8125 149.179688 L 27.5625 149.179688 Z M 27.5625 92.929688 " clip-rule="nonzero"/></clipPath><clipPath id="f3207d2bb3"><path d="M 27.5625 159.476562 L 83.8125 159.476562 L 83.8125 215.726562 L 27.5625 215.726562 Z M 27.5625 159.476562 " clip-rule="nonzero"/></clipPath><clipPath id="bd2f49a5eb"><path d="M 27.5625 226.023438 L 83.8125 226.023438 L 83.8125 282.273438 L 27.5625 282.273438 Z M 27.5625 226.023438 " clip-rule="nonzero"/></clipPath><clipPath id="d22cc194ad"><path d="M 27.5625 292.570312 L 83.8125 292.570312 L 83.8125 348.820312 L 27.5625 348.820312 Z M 27.5625 292.570312 " clip-rule="nonzero"/></clipPath><clipPath id="06b286a1fd"><path d="M 159.1875 26.382812 L 215.4375 26.382812 L 215.4375 82.632812 L 159.1875 82.632812 Z M 159.1875 26.382812 " clip-rule="nonzero"/></clipPath><clipPath id="42a0e64bb5"><path d="M 159.1875 92.929688 L 215.4375 92.929688 L 215.4375 149.179688 L 159.1875 149.179688 Z M 159.1875 92.929688 " clip-rule="nonzero"/></clipPath><clipPath id="df734ec6f7"><path d="M 159.1875 159.476562 L 215.4375 159.476562 L 215.4375 215.726562 L 159.1875 215.726562 Z M 159.1875 159.476562 " clip-rule="nonzero"/></clipPath><clipPath id="90a8d3ee9e"><path d="M 159.1875 226.023438 L 215.4375 226.023438 L 215.4375 282.273438 L 159.1875 282.273438 Z M 159.1875 226.023438 " clip-rule="nonzero"/></clipPath><clipPath id="6a65d31c95"><path d="M 159.1875 292.570312 L 215.4375 292.570312 L 215.4375 348.820312 L 159.1875 348.820312 Z M 159.1875 292.570312 " clip-rule="nonzero"/></clipPath><clipPath id="bde811ca8f"><path d="M 291.1875 26.179688 L 347.4375 26.179688 L 347.4375 82.429688 L 291.1875 82.429688 Z M 291.1875 26.179688 " clip-rule="nonzero"/></clipPath><clipPath id="8734bef313"><path d="M 291.1875 92.726562 L 347.4375 92.726562 L 347.4375 148.976562 L 291.1875 148.976562 Z M 291.1875 92.726562 " clip-rule="nonzero"/></clipPath><clipPath id="0fb2bcb739"><path d="M 291.1875 159.273438 L 347.4375 159.273438 L 347.4375 215.523438 L 291.1875 215.523438 Z M 291.1875 159.273438 " clip-rule="nonzero"/></clipPath><clipPath id="df4508dbb1"><path d="M 291.1875 225.820312 L 347.4375 225.820312 L 347.4375 282.070312 L 291.1875 282.070312 Z M 291.1875 225.820312 " clip-rule="nonzero"/></clipPath><clipPath id="70c22715be"><path d="M 291.1875 292.367188 L 347.4375 292.367188 L 347.4375 348.617188 L 291.1875 348.617188 Z M 291.1875 292.367188 " clip-rule="nonzero"/></clipPath><clipPath id="2296754ccd"><path d="M 93.1875 26.382812 L 149.4375 26.382812 L 149.4375 82.632812 L 93.1875 82.632812 Z M 93.1875 26.382812 " clip-rule="nonzero"/></clipPath><clipPath id="f2e840298d"><path d="M 225.1875 26.179688 L 281.4375 26.179688 L 281.4375 82.429688 L 225.1875 82.429688 Z M 225.1875 26.179688 " clip-rule="nonzero"/></clipPath><clipPath id="feec9a17c7"><path d="M 93.1875 159.273438 L 149.4375 159.273438 L 149.4375 215.523438 L 93.1875 215.523438 Z M 93.1875 159.273438 " clip-rule="nonzero"/></clipPath><clipPath id="9e9fb19d22"><path d="M 225.1875 159.070312 L 281.4375 159.070312 L 281.4375 215.320312 L 225.1875 215.320312 Z M 225.1875 159.070312 " clip-rule="nonzero"/></clipPath><clipPath id="53430f7e90"><path d="M 93.1875 292.164062 L 149.4375 292.164062 L 149.4375 348.414062 L 93.1875 348.414062 Z M 93.1875 292.164062 " clip-rule="nonzero"/></clipPath><clipPath id="3b1ca9661a"><path d="M 225.1875 291.957031 L 281.4375 291.957031 L 281.4375 348.207031 L 225.1875 348.207031 Z M 225.1875 291.957031 " clip-rule="nonzero"/></clipPath></defs><g clip-path="url(#1868a645d9)"><path fill="#ffffff" d="M 27.5625 26.382812 L 83.8125 26.382812 L 83.8125 82.632812 L 27.5625 82.632812 Z M 27.5625 26.382812 " fill-opacity="1" fill-rule="nonzero"/></g><g clip-path="url(#d945c4a9fc)"><path fill="#ffffff" d="M 27.5625 92.929688 L 83.8125 92.929688 L 83.8125 149.179688 L 27.5625 149.179688 Z M 27.5625 92.929688 " fill-opacity="1" fill-rule="nonzero"/></g><g clip-path="url(#f3207d2bb3)"><path fill="#ffffff" d="M 27.5625 159.476562 L 83.8125 159.476562 L 83.8125 215.726562 L 27.5625 215.726562 Z M 27.5625 159.476562 " fill-opacity="1" fill-rule="nonzero"/></g><g clip-path="url(#bd2f49a5eb)"><path fill="#ffffff" d="M 27.5625 226.023438 L 83.8125 226.023438 L 83.8125 282.273438 L 27.5625 282.273438 Z M 27.5625 226.023438 " fill-opacity="1" fill-rule="nonzero"/></g><g clip-path="url(#d22cc194ad)"><path fill="#ffffff" d="M 27.5625 292.570312 L 83.8125 292.570312 L 83.8125 348.820312 L 27.5625 348.820312 Z M 27.5625 292.570312 " fill-opacity="1" fill-rule="nonzero"/></g><g clip-path="url(#06b286a1fd)"><path fill="#ffffff" d="M 159.1875 26.382812 L 215.4375 26.382812 L 215.4375 82.632812 L 159.1875 82.632812 Z M 159.1875 26.382812 " fill-opacity="1" fill-rule="nonzero"/></g><g clip-path="url(#42a0e64bb5)"><path fill="#ffffff" d="M 159.1875 92.929688 L 215.4375 92.929688 L 215.4375 149.179688 L 159.1875 149.179688 Z M 159.1875 92.929688 " fill-opacity="1" fill-rule="nonzero"/></g><g clip-path="url(#df734ec6f7)"><path fill="#ffffff" d="M 159.1875 159.476562 L 215.4375 159.476562 L 215.4375 215.726562 L 159.1875 215.726562 Z M 159.1875 159.476562 " fill-opacity="1" fill-rule="nonzero"/></g><g clip-path="url(#90a8d3ee9e)"><path fill="#ffffff" d="M 159.1875 226.023438 L 215.4375 226.023438 L 215.4375 282.273438 L 159.1875 282.273438 Z M 159.1875 226.023438 " fill-opacity="1" fill-rule="nonzero"/></g><g clip-path="url(#6a65d31c95)"><path fill="#ffffff" d="M 159.1875 292.570312 L 215.4375 292.570312 L 215.4375 348.820312 L 159.1875 348.820312 Z M 159.1875 292.570312 " fill-opacity="1" fill-rule="nonzero"/></g><g clip-path="url(#bde811ca8f)"><path fill="#ffffff" d="M 291.1875 26.179688 L 347.4375 26.179688 L 347.4375 82.429688 L 291.1875 82.429688 Z M 291.1875 26.179688 " fill-opacity="1" fill-rule="nonzero"/></g><g clip-path="url(#8734bef313)"><path fill="#ffffff" d="M 291.1875 92.726562 L 347.4375 92.726562 L 347.4375 148.976562 L 291.1875 148.976562 Z M 291.1875 92.726562 " fill-opacity="1" fill-rule="nonzero"/></g><g clip-path="url(#0fb2bcb739)"><path fill="#ffffff" d="M 291.1875 159.273438 L 347.4375 159.273438 L 347.4375 215.523438 L 291.1875 215.523438 Z M 291.1875 159.273438 " fill-opacity="1" fill-rule="nonzero"/></g><g clip-path="url(#df4508dbb1)"><path fill="#ffffff" d="M 291.1875 225.820312 L 347.4375 225.820312 L 347.4375 282.070312 L 291.1875 282.070312 Z M 291.1875 225.820312 " fill-opacity="1" fill-rule="nonzero"/></g><g clip-path="url(#70c22715be)"><path fill="#ffffff" d="M 291.1875 292.367188 L 347.4375 292.367188 L 347.4375 348.617188 L 291.1875 348.617188 Z M 291.1875 292.367188 " fill-opacity="1" fill-rule="nonzero"/></g><g clip-path="url(#2296754ccd)"><path fill="#ffffff" d="M 93.1875 26.382812 L 149.4375 26.382812 L 149.4375 82.632812 L 93.1875 82.632812 Z M 93.1875 26.382812 " fill-opacity="1" fill-rule="nonzero"/></g><g clip-path="url(#f2e840298d)"><path fill="#ffffff" d="M 225.1875 26.179688 L 281.4375 26.179688 L 281.4375 82.429688 L 225.1875 82.429688 Z M 225.1875 26.179688 " fill-opacity="1" fill-rule="nonzero"/></g><g clip-path="url(#feec9a17c7)"><path fill="#ffffff" d="M 93.1875 159.273438 L 149.4375 159.273438 L 149.4375 215.523438 L 93.1875 215.523438 Z M 93.1875 159.273438 " fill-opacity="1" fill-rule="nonzero"/></g><g clip-path="url(#9e9fb19d22)"><path fill="#ffffff" d="M 225.1875 159.070312 L 281.4375 159.070312 L 281.4375 215.320312 L 225.1875 215.320312 Z M 225.1875 159.070312 " fill-opacity="1" fill-rule="nonzero"/></g><g clip-path="url(#53430f7e90)"><path fill="#ffffff" d="M 93.1875 292.164062 L 149.4375 292.164062 L 149.4375 348.414062 L 93.1875 348.414062 Z M 93.1875 292.164062 " fill-opacity="1" fill-rule="nonzero"/></g><g clip-path="url(#3b1ca9661a)"><path fill="#ffffff" d="M 225.1875 291.957031 L 281.4375 291.957031 L 281.4375 348.207031 L 225.1875 348.207031 Z M 225.1875 291.957031 " fill-opacity="1" fill-rule="nonzero"/></g></svg>