<svg xmlns="http://www.w3.org/2000/svg" xmlns:xlink="http://www.w3.org/1999/xlink" width="500" zoomAndPan="magnify" viewBox="0 0 375 374.999991" height="500" preserveAspectRatio="xMidYMid meet" version="1.0"><defs><g/></defs><g fill="#ffffff" fill-opacity="1"><g transform="translate(3.787495, 201.749987)"><g><path d="M 3.625 0 L 3.625 -27.84375 L 14.796875 -27.84375 C 17.679688 -27.84375 19.851562 -27.175781 21.3125 -25.84375 C 22.78125 -24.519531 23.515625 -22.691406 23.515625 -20.359375 C 23.515625 -18.671875 23.085938 -17.285156 22.234375 -16.203125 C 21.378906 -15.128906 20.097656 -14.304688 18.390625 -13.734375 L 18.390625 -13.328125 C 19.265625 -12.953125 19.972656 -12.390625 20.515625 -11.640625 C 21.054688 -10.890625 21.566406 -9.773438 22.046875 -8.296875 L 24.828125 0 L 19.171875 0 L 16.453125 -8.328125 C 16.171875 -9.160156 15.851562 -9.804688 15.5 -10.265625 C 15.15625 -10.734375 14.710938 -11.070312 14.171875 -11.28125 C 13.640625 -11.488281 12.941406 -11.59375 12.078125 -11.59375 L 9.125 -11.59375 L 9.125 0 Z M 14.125 -15.953125 C 16.789062 -15.953125 18.125 -17.195312 18.125 -19.6875 C 18.125 -22.21875 16.789062 -23.484375 14.125 -23.484375 L 9.125 -23.484375 L 9.125 -15.953125 Z M 14.125 -15.953125 "/></g></g><g transform="translate(29.819232, 201.749987)"><g><path d="M 26.71875 0 L 20.921875 0 L 18.828125 -6.421875 L 8.171875 -6.421875 L 6.078125 0 L 0.421875 0 L 10.03125 -27.84375 L 17.09375 -27.84375 Z M 13.234375 -22.03125 L 9.65625 -11.046875 L 17.3125 -11.046875 L 13.71875 -22.03125 Z M 13.234375 -22.03125 "/></g></g><g transform="translate(56.95546, 201.749987)"><g><path d="M 3.625 0 L 3.625 -27.84375 L 14.796875 -27.84375 C 17.679688 -27.84375 19.851562 -27.175781 21.3125 -25.84375 C 22.78125 -24.519531 23.515625 -22.691406 23.515625 -20.359375 C 23.515625 -18.671875 23.085938 -17.285156 22.234375 -16.203125 C 21.378906 -15.128906 20.097656 -14.304688 18.390625 -13.734375 L 18.390625 -13.328125 C 19.265625 -12.953125 19.972656 -12.390625 20.515625 -11.640625 C 21.054688 -10.890625 21.566406 -9.773438 22.046875 -8.296875 L 24.828125 0 L 19.171875 0 L 16.453125 -8.328125 C 16.171875 -9.160156 15.851562 -9.804688 15.5 -10.265625 C 15.15625 -10.734375 14.710938 -11.070312 14.171875 -11.28125 C 13.640625 -11.488281 12.941406 -11.59375 12.078125 -11.59375 L 9.125 -11.59375 L 9.125 0 Z M 14.125 -15.953125 C 16.789062 -15.953125 18.125 -17.195312 18.125 -19.6875 C 18.125 -22.21875 16.789062 -23.484375 14.125 -23.484375 L 9.125 -23.484375 L 9.125 -15.953125 Z M 14.125 -15.953125 "/></g></g><g transform="translate(82.987197, 201.749987)"><g><path d="M 3.625 0 L 3.625 -27.84375 L 14.796875 -27.84375 C 17.679688 -27.84375 19.851562 -27.175781 21.3125 -25.84375 C 22.78125 -24.519531 23.515625 -22.691406 23.515625 -20.359375 C 23.515625 -18.671875 23.085938 -17.285156 22.234375 -16.203125 C 21.378906 -15.128906 20.097656 -14.304688 18.390625 -13.734375 L 18.390625 -13.328125 C 19.265625 -12.953125 19.972656 -12.390625 20.515625 -11.640625 C 21.054688 -10.890625 21.566406 -9.773438 22.046875 -8.296875 L 24.828125 0 L 19.171875 0 L 16.453125 -8.328125 C 16.171875 -9.160156 15.851562 -9.804688 15.5 -10.265625 C 15.15625 -10.734375 14.710938 -11.070312 14.171875 -11.28125 C 13.640625 -11.488281 12.941406 -11.59375 12.078125 -11.59375 L 9.125 -11.59375 L 9.125 0 Z M 14.125 -15.953125 C 16.789062 -15.953125 18.125 -17.195312 18.125 -19.6875 C 18.125 -22.21875 16.789062 -23.484375 14.125 -23.484375 L 9.125 -23.484375 L 9.125 -15.953125 Z M 14.125 -15.953125 "/></g></g><g transform="translate(109.018934, 201.749987)"><g/></g><g transform="translate(118.216687, 201.749987)"><g><path d="M 22.3125 -27.84375 L 22.3125 -23.21875 L 14.28125 -23.21875 L 14.28125 0 L 8.796875 0 L 8.796875 -23.21875 L 0.765625 -23.21875 L 0.765625 -27.84375 Z M 22.3125 -27.84375 "/></g></g><g transform="translate(141.296764, 201.749987)"><g><path d="M 20.75 -9.3125 L 7.25 -9.3125 C 7.40625 -7.476562 7.925781 -6.144531 8.8125 -5.3125 C 9.707031 -4.488281 10.921875 -4.078125 12.453125 -4.078125 C 13.660156 -4.078125 14.640625 -4.300781 15.390625 -4.75 C 16.140625 -5.195312 16.742188 -5.878906 17.203125 -6.796875 L 17.59375 -6.796875 L 21.09375 -4.546875 C 20.414062 -3.078125 19.382812 -1.882812 18 -0.96875 C 16.613281 -0.0507812 14.765625 0.40625 12.453125 0.40625 C 10.285156 0.40625 8.410156 -0.00390625 6.828125 -0.828125 C 5.242188 -1.660156 4.023438 -2.890625 3.171875 -4.515625 C 2.316406 -6.148438 1.890625 -8.144531 1.890625 -10.5 C 1.890625 -12.882812 2.335938 -14.894531 3.234375 -16.53125 C 4.140625 -18.164062 5.359375 -19.382812 6.890625 -20.1875 C 8.429688 -21 10.160156 -21.40625 12.078125 -21.40625 C 15.046875 -21.40625 17.316406 -20.617188 18.890625 -19.046875 C 20.472656 -17.472656 21.265625 -15.160156 21.265625 -12.109375 C 21.265625 -11.003906 21.226562 -10.148438 21.15625 -9.546875 Z M 16.21875 -12.71875 C 16.175781 -14.320312 15.804688 -15.488281 15.109375 -16.21875 C 14.421875 -16.945312 13.410156 -17.3125 12.078125 -17.3125 C 9.410156 -17.3125 7.84375 -15.78125 7.375 -12.71875 Z M 16.21875 -12.71875 "/></g></g><g transform="translate(164.129282, 201.749987)"><g><path d="M 12.25 0.40625 C 10.21875 0.40625 8.421875 -0.015625 6.859375 -0.859375 C 5.296875 -1.710938 4.078125 -2.957031 3.203125 -4.59375 C 2.328125 -6.226562 1.890625 -8.195312 1.890625 -10.5 C 1.890625 -12.800781 2.328125 -14.769531 3.203125 -16.40625 C 4.078125 -18.050781 5.285156 -19.296875 6.828125 -20.140625 C 8.378906 -20.984375 10.15625 -21.40625 12.15625 -21.40625 C 16.582031 -21.40625 19.414062 -19.800781 20.65625 -16.59375 L 17.046875 -14 L 16.640625 -14 C 16.210938 -14.988281 15.648438 -15.722656 14.953125 -16.203125 C 14.265625 -16.679688 13.332031 -16.921875 12.15625 -16.921875 C 10.625 -16.921875 9.429688 -16.394531 8.578125 -15.34375 C 7.734375 -14.289062 7.3125 -12.675781 7.3125 -10.5 C 7.3125 -8.332031 7.742188 -6.71875 8.609375 -5.65625 C 9.472656 -4.601562 10.6875 -4.078125 12.25 -4.078125 C 13.382812 -4.078125 14.347656 -4.382812 15.140625 -5 C 15.941406 -5.613281 16.515625 -6.5 16.859375 -7.65625 L 17.25 -7.6875 L 21 -5.640625 C 20.46875 -3.859375 19.476562 -2.40625 18.03125 -1.28125 C 16.59375 -0.15625 14.664062 0.40625 12.25 0.40625 Z M 12.25 0.40625 "/></g></g><g transform="translate(185.781136, 201.749987)"><g><path d="M 3.03125 0 L 3.03125 -29.4375 L 8.296875 -29.4375 L 8.296875 -18.265625 L 8.703125 -18.1875 C 9.398438 -19.21875 10.253906 -20.007812 11.265625 -20.5625 C 12.285156 -21.125 13.515625 -21.40625 14.953125 -21.40625 C 19.585938 -21.40625 21.90625 -18.773438 21.90625 -13.515625 L 21.90625 0 L 16.625 0 L 16.625 -12.859375 C 16.625 -14.285156 16.335938 -15.320312 15.765625 -15.96875 C 15.191406 -16.625 14.304688 -16.953125 13.109375 -16.953125 C 11.628906 -16.953125 10.457031 -16.457031 9.59375 -15.46875 C 8.726562 -14.488281 8.296875 -12.957031 8.296875 -10.875 L 8.296875 0 Z M 3.03125 0 "/></g></g><g transform="translate(210.38465, 201.749987)"><g><path d="M 3.03125 0 L 3.03125 -21 L 8.09375 -21 L 8.09375 -17.921875 L 8.5 -17.828125 C 9.800781 -20.210938 11.921875 -21.40625 14.859375 -21.40625 C 17.273438 -21.40625 19.050781 -20.742188 20.1875 -19.421875 C 21.332031 -18.097656 21.90625 -16.175781 21.90625 -13.65625 L 21.90625 0 L 16.625 0 L 16.625 -13 C 16.625 -14.394531 16.34375 -15.398438 15.78125 -16.015625 C 15.226562 -16.640625 14.335938 -16.953125 13.109375 -16.953125 C 11.585938 -16.953125 10.40625 -16.460938 9.5625 -15.484375 C 8.71875 -14.503906 8.296875 -12.96875 8.296875 -10.875 L 8.296875 0 Z M 3.03125 0 "/></g></g><g transform="translate(234.988164, 201.749987)"><g><path d="M 12.203125 0.40625 C 10.148438 0.40625 8.34375 -0.015625 6.78125 -0.859375 C 5.226562 -1.710938 4.023438 -2.953125 3.171875 -4.578125 C 2.316406 -6.210938 1.890625 -8.1875 1.890625 -10.5 C 1.890625 -12.800781 2.316406 -14.769531 3.171875 -16.40625 C 4.023438 -18.050781 5.226562 -19.296875 6.78125 -20.140625 C 8.34375 -20.984375 10.148438 -21.40625 12.203125 -21.40625 C 14.265625 -21.40625 16.070312 -20.984375 17.625 -20.140625 C 19.175781 -19.296875 20.382812 -18.050781 21.25 -16.40625 C 22.113281 -14.769531 22.546875 -12.800781 22.546875 -10.5 C 22.546875 -8.1875 22.113281 -6.210938 21.25 -4.578125 C 20.382812 -2.953125 19.175781 -1.710938 17.625 -0.859375 C 16.070312 -0.015625 14.265625 0.40625 12.203125 0.40625 Z M 12.203125 -4.078125 C 15.460938 -4.078125 17.09375 -6.21875 17.09375 -10.5 C 17.09375 -12.71875 16.675781 -14.34375 15.84375 -15.375 C 15.007812 -16.40625 13.796875 -16.921875 12.203125 -16.921875 C 8.941406 -16.921875 7.3125 -14.78125 7.3125 -10.5 C 7.3125 -6.21875 8.941406 -4.078125 12.203125 -4.078125 Z M 12.203125 -4.078125 "/></g></g><g transform="translate(259.401248, 201.749987)"><g><path d="M 8.71875 0.40625 C 6.832031 0.40625 5.390625 -0.101562 4.390625 -1.125 C 3.390625 -2.15625 2.890625 -3.710938 2.890625 -5.796875 L 2.890625 -29.4375 L 8.171875 -29.4375 L 8.171875 -6 C 8.171875 -4.71875 8.703125 -4.078125 9.765625 -4.078125 C 10.066406 -4.078125 10.390625 -4.128906 10.734375 -4.234375 L 11 -4.15625 L 11.484375 -0.09375 C 11.191406 0.0625 10.800781 0.179688 10.3125 0.265625 C 9.832031 0.359375 9.300781 0.40625 8.71875 0.40625 Z M 8.71875 0.40625 "/></g></g><g transform="translate(271.47449, 201.749987)"><g><path d="M 12.203125 0.40625 C 10.148438 0.40625 8.34375 -0.015625 6.78125 -0.859375 C 5.226562 -1.710938 4.023438 -2.953125 3.171875 -4.578125 C 2.316406 -6.210938 1.890625 -8.1875 1.890625 -10.5 C 1.890625 -12.800781 2.316406 -14.769531 3.171875 -16.40625 C 4.023438 -18.050781 5.226562 -19.296875 6.78125 -20.140625 C 8.34375 -20.984375 10.148438 -21.40625 12.203125 -21.40625 C 14.265625 -21.40625 16.070312 -20.984375 17.625 -20.140625 C 19.175781 -19.296875 20.382812 -18.050781 21.25 -16.40625 C 22.113281 -14.769531 22.546875 -12.800781 22.546875 -10.5 C 22.546875 -8.1875 22.113281 -6.210938 21.25 -4.578125 C 20.382812 -2.953125 19.175781 -1.710938 17.625 -0.859375 C 16.070312 -0.015625 14.265625 0.40625 12.203125 0.40625 Z M 12.203125 -4.078125 C 15.460938 -4.078125 17.09375 -6.21875 17.09375 -10.5 C 17.09375 -12.71875 16.675781 -14.34375 15.84375 -15.375 C 15.007812 -16.40625 13.796875 -16.921875 12.203125 -16.921875 C 8.941406 -16.921875 7.3125 -14.78125 7.3125 -10.5 C 7.3125 -6.21875 8.941406 -4.078125 12.203125 -4.078125 Z M 12.203125 -4.078125 "/></g></g><g transform="translate(295.887574, 201.749987)"><g><path d="M 10.890625 8.90625 C 7.421875 8.90625 4.863281 8.394531 3.21875 7.375 C 1.570312 6.363281 0.75 4.953125 0.75 3.140625 C 0.75 2.035156 1.097656 1.128906 1.796875 0.421875 C 2.503906 -0.273438 3.519531 -0.742188 4.84375 -0.984375 L 4.84375 -1.390625 C 4.125 -1.816406 3.609375 -2.296875 3.296875 -2.828125 C 2.992188 -3.359375 2.84375 -3.972656 2.84375 -4.671875 C 2.84375 -6.359375 3.9375 -7.492188 6.125 -8.078125 L 6.125 -8.46875 C 5 -9.125 4.148438 -9.929688 3.578125 -10.890625 C 3.003906 -11.847656 2.71875 -13.003906 2.71875 -14.359375 C 2.71875 -15.753906 3.035156 -16.984375 3.671875 -18.046875 C 4.316406 -19.109375 5.257812 -19.929688 6.5 -20.515625 C 7.738281 -21.109375 9.222656 -21.40625 10.953125 -21.40625 C 12.703125 -21.40625 14.097656 -21.097656 15.140625 -20.484375 C 15.785156 -21.429688 16.160156 -22.519531 16.265625 -23.75 L 16.65625 -24 L 20.453125 -23.0625 C 20.335938 -22.0625 20.046875 -21.21875 19.578125 -20.53125 C 19.109375 -19.851562 18.378906 -19.25 17.390625 -18.71875 L 17.390625 -18.296875 C 18.566406 -17.253906 19.15625 -15.800781 19.15625 -13.9375 C 19.15625 -12.644531 18.832031 -11.484375 18.1875 -10.453125 C 17.539062 -9.421875 16.597656 -8.609375 15.359375 -8.015625 C 14.117188 -7.421875 12.648438 -7.125 10.953125 -7.125 L 10.15625 -7.140625 C 9.644531 -7.160156 9.285156 -7.171875 9.078125 -7.171875 C 8.597656 -7.171875 8.222656 -7.039062 7.953125 -6.78125 C 7.679688 -6.53125 7.546875 -6.203125 7.546875 -5.796875 C 7.546875 -5.347656 7.722656 -5 8.078125 -4.75 C 8.429688 -4.5 8.953125 -4.363281 9.640625 -4.34375 L 14.34375 -4.171875 C 18.988281 -4.035156 21.3125 -2.035156 21.3125 1.828125 C 21.3125 3.179688 20.960938 4.390625 20.265625 5.453125 C 19.578125 6.515625 18.457031 7.351562 16.90625 7.96875 C 15.363281 8.59375 13.359375 8.90625 10.890625 8.90625 Z M 10.953125 -10.8125 C 11.960938 -10.8125 12.753906 -11.109375 13.328125 -11.703125 C 13.898438 -12.304688 14.1875 -13.160156 14.1875 -14.265625 C 14.1875 -15.367188 13.898438 -16.210938 13.328125 -16.796875 C 12.753906 -17.390625 11.960938 -17.6875 10.953125 -17.6875 C 9.921875 -17.6875 9.125 -17.390625 8.5625 -16.796875 C 8.007812 -16.210938 7.734375 -15.367188 7.734375 -14.265625 C 7.734375 -13.148438 8.007812 -12.296875 8.5625 -11.703125 C 9.125 -11.109375 9.921875 -10.8125 10.953125 -10.8125 Z M 10.890625 5.078125 C 12.691406 5.078125 14 4.820312 14.8125 4.3125 C 15.632812 3.8125 16.046875 3.15625 16.046875 2.34375 C 16.046875 1.6875 15.835938 1.203125 15.421875 0.890625 C 15.003906 0.578125 14.335938 0.40625 13.421875 0.375 L 9.28125 0.1875 C 9.132812 0.1875 9 0.179688 8.875 0.171875 C 8.757812 0.160156 8.644531 0.15625 8.53125 0.15625 C 7.644531 0.15625 6.96875 0.34375 6.5 0.71875 C 6.039062 1.101562 5.8125 1.628906 5.8125 2.296875 C 5.8125 3.191406 6.234375 3.878906 7.078125 4.359375 C 7.929688 4.835938 9.203125 5.078125 10.890625 5.078125 Z M 10.890625 5.078125 "/></g></g><g transform="translate(317.729857, 201.749987)"><g><path d="M 5.65625 -23.515625 C 4.707031 -23.515625 3.929688 -23.800781 3.328125 -24.375 C 2.734375 -24.957031 2.4375 -25.707031 2.4375 -26.625 C 2.4375 -27.519531 2.734375 -28.253906 3.328125 -28.828125 C 3.929688 -29.410156 4.707031 -29.703125 5.65625 -29.703125 C 6.289062 -29.703125 6.851562 -29.566406 7.34375 -29.296875 C 7.84375 -29.035156 8.226562 -28.671875 8.5 -28.203125 C 8.769531 -27.742188 8.90625 -27.21875 8.90625 -26.625 C 8.90625 -26.03125 8.769531 -25.492188 8.5 -25.015625 C 8.226562 -24.546875 7.84375 -24.175781 7.34375 -23.90625 C 6.851562 -23.644531 6.289062 -23.515625 5.65625 -23.515625 Z M 3.03125 0 L 3.03125 -21 L 8.296875 -21 L 8.296875 0 Z M 3.03125 0 "/></g></g><g transform="translate(329.04138, 201.749987)"><g><path d="M 20.75 -9.3125 L 7.25 -9.3125 C 7.40625 -7.476562 7.925781 -6.144531 8.8125 -5.3125 C 9.707031 -4.488281 10.921875 -4.078125 12.453125 -4.078125 C 13.660156 -4.078125 14.640625 -4.300781 15.390625 -4.75 C 16.140625 -5.195312 16.742188 -5.878906 17.203125 -6.796875 L 17.59375 -6.796875 L 21.09375 -4.546875 C 20.414062 -3.078125 19.382812 -1.882812 18 -0.96875 C 16.613281 -0.0507812 14.765625 0.40625 12.453125 0.40625 C 10.285156 0.40625 8.410156 -0.00390625 6.828125 -0.828125 C 5.242188 -1.660156 4.023438 -2.890625 3.171875 -4.515625 C 2.316406 -6.148438 1.890625 -8.144531 1.890625 -10.5 C 1.890625 -12.882812 2.335938 -14.894531 3.234375 -16.53125 C 4.140625 -18.164062 5.359375 -19.382812 6.890625 -20.1875 C 8.429688 -21 10.160156 -21.40625 12.078125 -21.40625 C 15.046875 -21.40625 17.316406 -20.617188 18.890625 -19.046875 C 20.472656 -17.472656 21.265625 -15.160156 21.265625 -12.109375 C 21.265625 -11.003906 21.226562 -10.148438 21.15625 -9.546875 Z M 16.21875 -12.71875 C 16.175781 -14.320312 15.804688 -15.488281 15.109375 -16.21875 C 14.421875 -16.945312 13.410156 -17.3125 12.078125 -17.3125 C 9.410156 -17.3125 7.84375 -15.78125 7.375 -12.71875 Z M 16.21875 -12.71875 "/></g></g><g transform="translate(351.873898, 201.749987)"><g><path d="M 9.828125 0.40625 C 8.390625 0.40625 7.070312 0.238281 5.875 -0.09375 C 4.6875 -0.4375 3.671875 -0.898438 2.828125 -1.484375 C 1.984375 -2.078125 1.359375 -2.753906 0.953125 -3.515625 L 3.890625 -6.6875 L 4.28125 -6.6875 C 4.976562 -5.75 5.800781 -5.039062 6.75 -4.5625 C 7.707031 -4.09375 8.742188 -3.859375 9.859375 -3.859375 C 10.890625 -3.859375 11.664062 -4.039062 12.1875 -4.40625 C 12.707031 -4.78125 12.96875 -5.3125 12.96875 -6 C 12.96875 -6.53125 12.78125 -6.976562 12.40625 -7.34375 C 12.03125 -7.707031 11.425781 -7.988281 10.59375 -8.1875 L 7.8125 -8.859375 C 5.726562 -9.347656 4.207031 -10.101562 3.25 -11.125 C 2.289062 -12.144531 1.8125 -13.445312 1.8125 -15.03125 C 1.8125 -16.332031 2.144531 -17.460938 2.8125 -18.421875 C 3.476562 -19.390625 4.414062 -20.128906 5.625 -20.640625 C 6.84375 -21.148438 8.253906 -21.40625 9.859375 -21.40625 C 11.753906 -21.40625 13.320312 -21.128906 14.5625 -20.578125 C 15.8125 -20.035156 16.785156 -19.304688 17.484375 -18.390625 L 14.65625 -15.34375 L 14.28125 -15.34375 C 13.695312 -16.007812 13.039062 -16.492188 12.3125 -16.796875 C 11.582031 -17.097656 10.765625 -17.25 9.859375 -17.25 C 7.773438 -17.25 6.734375 -16.601562 6.734375 -15.3125 C 6.734375 -14.757812 6.925781 -14.3125 7.3125 -13.96875 C 7.707031 -13.632812 8.394531 -13.359375 9.375 -13.140625 L 11.953125 -12.5625 C 14.085938 -12.113281 15.644531 -11.382812 16.625 -10.375 C 17.613281 -9.363281 18.109375 -8.003906 18.109375 -6.296875 C 18.109375 -4.960938 17.773438 -3.785156 17.109375 -2.765625 C 16.453125 -1.753906 15.5 -0.972656 14.25 -0.421875 C 13.007812 0.128906 11.535156 0.40625 9.828125 0.40625 Z M 9.828125 0.40625 "/></g></g></g></svg>